<?xml version="1.0" standalone="no"?>
<!DOCTYPE svg PUBLIC "-//W3C//DTD SVG 20010904//EN"
 "http://www.w3.org/TR/2001/REC-SVG-20010904/DTD/svg10.dtd">
<svg version="1.0" xmlns="http://www.w3.org/2000/svg"
 width="256.000000pt" height="256.000000pt" viewBox="0 0 256.000000 256.000000"
 preserveAspectRatio="xMidYMid meet">
<metadata>
Created by potrace 1.11, written by Peter Selinger 2001-2013
</metadata>
<g transform="translate(0.000000,256.000000) scale(0.100000,-0.100000)"
fill="#000000" stroke="none">
<path d="M1039 1737 c-2 -3 -33 -8 -69 -11 -93 -9 -103 -14 -98 -41 4 -21 -1
-25 -41 -35 -75 -19 -193 -68 -249 -103 -71 -45 -147 -120 -169 -168 -18 -38
-18 -38 -76 -39 -32 0 -57 -3 -55 -8 2 -4 11 -28 22 -55 l19 -47 78 0 79 0 0
38 c1 116 134 231 340 292 41 12 84 24 95 25 11 2 38 7 60 11 51 10 314 11
380 2 224 -33 436 -143 486 -253 80 -175 -91 -342 -422 -411 -56 -12 -132 -18
-229 -18 -167 -1 -233 6 -343 35 l-79 22 -31 -31 c-20 -20 -28 -35 -22 -41 21
-20 161 -54 275 -67 30 -4 62 -8 70 -10 8 -1 29 -3 47 -3 27 -1 32 -5 35 -28
l3 -28 100 1 c428 3 806 185 876 421 l12 43 89 0 c87 0 88 0 88 25 0 25 -1 25
-89 25 l-88 0 -13 45 c-32 114 -162 233 -327 300 -37 15 -77 31 -88 36 -23 10
-212 55 -270 64 -48 7 -389 17 -396 12z"/>
<path d="M1135 1325 c-5 -2 -22 -6 -36 -9 -14 -3 -37 -17 -52 -31 -22 -22 -24
-30 -16 -54 28 -79 224 -96 292 -25 18 19 33 24 75 24 45 0 52 3 52 20 0 18
-7 20 -54 20 -30 0 -58 5 -62 11 -20 32 -148 61 -199 44z"/>
</g>
</svg>
